<?xml version="1.0" standalone="no"?>
<!DOCTYPE svg PUBLIC "-//W3C//DTD SVG 20010904//EN"
 "http://www.w3.org/TR/2001/REC-SVG-20010904/DTD/svg10.dtd">
<svg version="1.0" xmlns="http://www.w3.org/2000/svg"
 width="512.000000pt" height="512.000000pt" viewBox="0 0 512.000000 512.000000"
 preserveAspectRatio="xMidYMid meet">
<metadata>
Created by potrace 1.14, written by Peter Selinger 2001-2017
</metadata>
<g transform="translate(0.000000,512.000000) scale(0.100000,-0.100000)"
fill="#000000" stroke="none">
<path d="M15 5102 c3 -8 2 -20 -3 -26 -5 -6 -4 -62 1 -126 7 -80 7 -175 -2
-315 -6 -110 -11 -250 -11 -312 l0 -112 83 -58 c45 -32 106 -79 135 -105 29
-27 57 -48 63 -48 5 0 81 -48 167 -107 86 -59 176 -120 200 -136 23 -15 42
-31 42 -34 0 -6 -52 26 -174 106 -108 72 -105 70 -186 121 -85 53 -310 221
-310 231 0 5 -4 9 -10 9 -6 0 -10 -40 -10 -99 l0 -100 63 -44 c96 -69 361
-237 467 -296 52 -30 106 -61 120 -71 14 -9 53 -29 88 -45 39 -18 68 -38 77
-54 8 -14 14 -20 15 -13 0 23 30 12 36 -14 4 -17 9 -22 14 -14 11 18 100 -23
101 -47 0 -11 3 -13 6 -5 9 22 23 2 17 -24 -4 -14 -2 -24 5 -24 6 0 11 10 11
21 0 17 5 20 21 16 15 -4 19 -1 17 11 -2 9 -17 20 -33 23 -20 5 -24 7 -10 9
l20 1 -20 9 -20 9 20 1 c17 0 18 2 5 13 -17 13 -23 57 -8 57 5 0 7 4 3 10 -3
5 -12 7 -20 3 -8 -3 -15 -1 -15 5 0 17 42 21 81 8 37 -13 57 -5 23 8 -37 14
-4 14 50 0 32 -8 60 -13 62 -11 3 2 -15 14 -38 25 l-43 21 43 1 c23 0 42 4 42
9 0 10 -54 31 -81 31 -11 0 -19 5 -19 10 0 6 -7 10 -15 10 -8 0 -15 -4 -15 -8
0 -5 -7 -9 -15 -9 -8 0 -15 4 -15 9 0 4 5 8 10 8 6 0 10 5 10 11 0 11 -44 7
-95 -8 -18 -5 -19 -4 -5 12 14 17 13 18 -18 12 -18 -4 -32 -2 -32 3 0 6 4 10
9 10 5 0 22 5 38 12 15 6 36 10 47 9 10 -2 15 2 12 8 -5 7 11 8 46 5 34 -4 48
-2 40 4 -7 5 -25 7 -39 4 -18 -3 -24 -1 -19 7 5 7 -1 11 -14 11 -12 0 -19 4
-16 8 3 5 -9 17 -26 27 -17 10 -28 13 -24 6 5 -7 -3 -11 -23 -11 -17 0 -31 -4
-31 -10 0 -5 -12 -10 -27 -9 -25 0 -26 1 -8 9 11 5 16 9 10 10 -5 1 -14 3 -20
5 -5 1 -25 3 -43 3 -44 3 -33 18 14 20 39 2 62 12 27 12 -12 0 -34 12 -50 28
l-30 27 67 -5 c46 -3 72 -11 84 -23 14 -13 26 -16 50 -11 17 3 32 10 34 14 2
5 16 4 33 0 17 -5 27 -5 24 0 -10 17 -66 39 -113 45 l-47 7 30 -21 c31 -22 23
-27 -17 -12 -14 5 -67 14 -119 21 -52 6 -98 16 -104 21 -7 7 3 8 30 4 32 -6
38 -5 28 5 -10 11 -42 16 -68 10 -5 -1 -21 -1 -35 0 -19 1 -15 5 20 15 l45 13
-43 1 c-40 1 -42 2 -31 22 6 12 7 19 1 15 -5 -3 -17 3 -27 14 -10 11 -15 20
-10 20 4 0 2 6 -4 13 -6 8 -9 16 -6 19 3 3 -13 13 -35 23 -24 11 -39 24 -36
31 3 7 -11 24 -29 38 -19 15 -49 39 -66 55 -17 16 -38 27 -45 24 -8 -3 -14 1
-14 8 0 8 -17 25 -38 39 -20 13 -58 43 -83 66 -25 23 -56 45 -69 49 -13 4 -57
35 -99 68 -42 33 -76 61 -77 61 -1 1 3 33 7 71 5 39 9 152 9 253 0 179 0 182
21 182 18 0 19 2 9 15 -10 13 -9 18 7 33 38 34 34 47 -14 48 -35 1 -43 -2 -38
-14z m962 -1356 c-15 -7 -26 -14 -23 -17 2 -2 -10 -5 -27 -5 l-31 -1 23 18
c13 11 37 19 55 18 l31 -1 -28 -12z m-120 -32 c-3 -3 -12 -4 -19 -1 -8 3 -5 6
6 6 11 1 17 -2 13 -5z m188 -104 c18 -7 16 -10 -17 -24 -21 -9 -42 -16 -48
-16 -16 0 -12 17 6 24 8 3 12 10 9 16 -7 12 22 12 50 0z m-88 -68 c-17 -16
-18 -16 -11 2 6 15 4 17 -7 11 -12 -8 -12 -6 0 9 10 12 17 14 25 6 7 -7 5 -15
-7 -28z"/>
<path d="M465 5063 c-22 -31 -54 -73 -71 -92 -17 -20 -65 -82 -108 -139 -55
-73 -82 -102 -93 -98 -11 5 -13 2 -9 -10 3 -8 1 -25 -5 -36 -6 -11 -8 -22 -5
-25 3 -3 10 7 16 23 6 16 20 38 30 49 54 58 70 76 70 82 0 7 55 78 100 128 19
22 46 54 58 70 l23 30 -6 -28 c-4 -19 -2 -26 5 -22 5 3 10 12 10 20 0 7 9 34
20 59 10 25 16 46 12 46 -4 0 -25 -26 -47 -57z"/>
<path d="M957 5103 c-2 -10 -5 -43 -6 -73 -3 -69 -26 -155 -56 -200 -12 -19
-25 -45 -29 -58 -4 -12 -11 -22 -15 -22 -4 0 -8 -6 -8 -13 0 -15 -55 -136
-114 -249 -26 -51 -35 -76 -24 -72 8 3 15 14 15 24 0 10 7 23 15 30 8 7 15 16
15 21 0 17 92 199 101 199 5 0 9 9 9 20 0 24 21 70 32 70 4 0 8 10 8 22 0 30
13 13 16 -20 7 -91 16 -163 25 -205 6 -27 9 -73 7 -102 -3 -30 -1 -52 3 -49
13 7 17 -4 59 -161 5 -20 8 -23 9 -10 0 11 -11 58 -24 104 -31 106 -42 181
-26 181 8 0 7 7 -3 23 -8 13 -17 62 -20 117 -4 52 -9 112 -12 132 -8 52 3 64
32 37 18 -17 21 -25 12 -36 -8 -11 -7 -12 6 -7 11 4 19 -1 26 -17 10 -24 10
-24 6 2 -5 20 0 28 22 37 l27 11 -32 -5 c-26 -4 -37 0 -58 22 -29 31 -29 34
-10 98 17 54 20 166 6 166 -5 0 -12 -8 -14 -17z"/>
<path d="M1283 5091 c6 -29 -2 -53 -14 -45 -5 3 -6 -2 -3 -11 7 -18 -24 -95
-38 -95 -4 0 -8 -9 -8 -20 0 -11 -9 -29 -19 -39 -11 -11 -17 -22 -14 -25 3 -3
12 2 19 12 18 23 18 23 -6 -191 -11 -100 -19 -195 -19 -212 2 -45 -10 -285
-16 -322 -3 -17 -1 -34 5 -38 5 -3 10 0 11 7 0 7 4 67 9 133 5 66 11 180 14
253 3 73 9 139 15 146 6 7 9 15 6 18 -8 8 16 212 26 223 5 5 9 15 9 21 0 7 4
24 10 38 8 23 12 24 40 15 23 -9 38 -26 66 -85 l37 -73 -7 -162 c-4 -90 -9
-165 -11 -169 -2 -3 -7 -41 -10 -85 -8 -91 -19 -130 -29 -104 -5 11 -15 14
-31 11 -20 -3 -27 2 -39 29 -8 19 -15 28 -15 21 -1 -21 28 -72 42 -72 9 0 9
-2 -1 -9 -7 -4 -14 -21 -16 -37 -2 -16 -4 -32 -5 -36 -2 -17 -21 -7 -21 11 0
11 -5 23 -11 27 -8 4 -9 -1 -4 -16 4 -12 8 -32 10 -43 1 -12 8 -33 14 -47 l11
-25 -3 25 c-1 19 3 26 21 28 22 3 23 1 17 -28 -7 -30 -6 -31 15 -20 14 8 37 9
59 5 36 -7 98 -13 201 -20 30 -2 58 -4 61 -4 8 -1 50 -84 53 -106 1 -10 10
-23 20 -30 13 -10 14 -14 4 -18 -7 -3 -3 -4 10 -4 27 2 28 9 2 32 -11 10 -20
23 -20 29 0 6 5 3 11 -6 12 -22 33 -24 26 -3 -4 8 -2 17 4 21 6 4 6 11 -2 20
-9 11 -6 16 14 23 40 15 46 35 9 29 -17 -2 -29 -1 -26 4 3 4 0 8 -5 8 -6 0
-11 -5 -11 -11 0 -5 -4 -7 -10 -4 -13 8 -13 -1 1 -28 7 -15 2 -13 -15 8 -33
38 -32 45 2 46 56 2 98 6 140 13 35 6 42 5 42 -8 0 -9 -4 -16 -9 -16 -4 0 -7
-12 -5 -27 1 -15 -2 -33 -8 -40 -10 -13 -1 -18 28 -14 7 1 14 -8 17 -19 4 -15
0 -20 -13 -20 -32 0 -31 -18 1 -34 l32 -16 -6 50 c-4 29 -2 50 3 50 18 0 10
22 -9 27 -11 3 -22 12 -26 20 -9 24 4 29 20 7 14 -18 14 -18 15 10 0 24 2 27
15 16 11 -9 15 -9 15 -1 0 7 5 9 11 6 6 -4 13 2 16 14 3 11 9 18 15 15 5 -3 6
-14 3 -25 -5 -14 -3 -17 9 -13 11 4 16 1 16 -10 0 -13 4 -15 19 -6 25 13 31
13 31 0 0 -5 -9 -10 -19 -10 -10 0 -22 -7 -25 -16 -5 -14 -7 -14 -22 1 -20 20
-32 12 -14 -10 8 -10 9 -15 1 -15 -16 0 -14 -35 3 -49 11 -9 15 -8 20 5 3 9 4
19 2 22 -2 4 7 8 20 8 18 2 26 -4 30 -22 8 -30 24 -32 17 -1 -3 18 -1 16 13
-8 11 -20 13 -30 5 -33 -15 -5 -14 -32 2 -32 7 0 18 5 25 12 9 9 12 9 12 0 0
-7 5 -12 10 -12 6 0 10 12 10 28 1 24 2 25 14 10 7 -10 18 -18 24 -18 6 0 16
-8 21 -17 10 -17 10 -17 11 -1 0 9 -5 20 -10 23 -6 4 -8 11 -5 16 4 5 2 9 -4
9 -13 0 -70 58 -63 64 3 3 11 1 19 -5 7 -6 13 -8 13 -3 0 5 7 -2 16 -15 26
-37 39 -10 15 30 -16 27 -21 30 -21 14 0 -17 -2 -17 -10 -5 -5 8 -7 29 -4 46
4 23 2 33 -10 37 -10 4 -16 1 -16 -8 0 -8 -4 -15 -10 -15 -17 0 -11 43 10 77
14 24 15 31 5 26 -8 -3 -15 -13 -15 -22 0 -13 -2 -14 -10 -1 -7 12 -12 12 -34
0 -20 -10 -23 -16 -15 -27 6 -7 16 -10 21 -7 7 4 7 0 0 -12 -5 -11 -7 -26 -5
-34 3 -8 -7 0 -22 18 -24 29 -31 32 -63 26 -21 -3 -47 -12 -58 -20 -12 -7 -25
-10 -28 -6 -4 3 -17 7 -29 7 -21 0 -22 3 -23 123 -1 132 4 145 46 122 17 -9
19 -14 9 -26 -9 -11 -7 -14 12 -14 34 0 50 13 53 43 4 37 -10 55 -18 23 -4
-18 -12 -25 -26 -23 -11 2 -23 6 -26 10 -4 4 -15 7 -24 7 -12 0 -17 11 -18 43
-3 39 1 46 37 75 22 18 45 32 51 32 6 0 30 18 54 40 26 24 53 40 68 40 19 0
30 11 53 56 16 31 39 63 50 72 11 10 28 31 38 47 15 24 10 21 -24 -13 -32 -34
-44 -41 -50 -30 -11 17 -11 26 6 73 8 22 15 51 15 64 0 27 80 107 117 117 23
6 56 47 46 57 -3 3 -24 -12 -46 -34 -23 -22 -43 -35 -46 -28 -2 6 -14 -2 -27
-17 l-23 -29 -1 24 0 24 -20 -23 c-11 -13 -20 -29 -20 -35 0 -7 -7 -15 -14
-18 -11 -4 -13 -1 -8 11 6 16 4 16 -18 -1 -14 -9 -35 -24 -47 -33 -12 -9 -28
-14 -35 -12 -11 4 67 89 115 126 14 11 17 10 18 -5 0 -10 8 1 17 24 9 22 26
50 36 62 14 16 15 21 5 21 -8 -1 -27 -19 -44 -40 -36 -47 -49 -50 -43 -10 3
17 1 33 -4 36 -7 5 -13 -50 -9 -83 1 -6 -15 -24 -36 -39 -21 -15 -44 -35 -50
-43 -18 -21 -16 -3 7 81 11 40 20 78 20 85 0 25 -30 13 -36 -14 -21 -96 -64
-214 -75 -207 -5 3 -6 -2 -3 -11 6 -14 -40 -74 -57 -75 -3 0 -3 51 -1 113 3
83 9 122 23 149 12 23 15 39 9 43 -6 3 -10 -1 -10 -9 0 -8 -5 -18 -10 -21 -7
-4 -9 2 -4 19 l6 26 -280 0 -280 0 8 -37 c11 -51 23 -233 16 -233 -3 0 -19 27
-36 60 -24 48 -28 64 -20 80 9 17 8 20 -10 20 -18 0 -26 16 -21 44 1 6 5 22 8
38 5 25 3 28 -21 26 -23 -2 -27 -6 -23 -27z m31 -97 c9 -22 8 -24 -9 -24 -8 0
-15 9 -15 20 0 24 15 27 24 4z m886 -108 c0 -19 -7 -42 -16 -51 -11 -10 -15
-27 -12 -50 2 -18 1 -32 -3 -29 -4 2 -9 -6 -11 -18 -2 -13 -9 -22 -16 -20 -9
2 -11 -4 -7 -17 4 -13 -4 -29 -28 -52 -43 -44 -87 -79 -97 -79 -4 0 -19 -9
-34 -21 -14 -11 -26 -18 -26 -14 0 8 53 79 63 83 4 2 7 8 7 13 0 11 79 121 94
131 6 4 -2 11 -17 17 -37 14 -36 14 -56 -11 l-18 -21 -5 25 c-3 14 0 41 6 59
9 28 16 35 44 37 18 2 52 14 75 27 56 31 57 30 57 -9z m-253 -138 c-20 -48
-22 -51 -25 -25 -2 16 4 39 13 53 27 42 35 26 12 -28z m63 -5 c0 -18 -81 -145
-88 -138 -3 2 8 24 24 47 16 24 29 45 29 48 7 48 35 83 35 43z m-8 -395 c-6
-6 -15 -8 -19 -4 -4 4 -1 11 7 16 19 12 27 3 12 -12z m95 -233 c8 -23 -2 -28
-27 -15 -18 10 -20 14 -9 21 20 13 29 11 36 -6z m83 -68 c0 -5 -4 -5 -10 -2
-5 3 -10 0 -10 -7 0 -10 -2 -10 -9 1 -6 9 -5 19 2 26 12 13 26 2 27 -18z
m-100 -17 c0 -5 -4 -10 -10 -10 -5 0 -10 5 -10 10 0 6 5 10 10 10 6 0 10 -4
10 -10z m-355 -10 c3 -5 1 -10 -4 -10 -6 0 -11 5 -11 10 0 6 2 10 4 10 3 0 8
-4 11 -10z m435 -15 c0 -8 -4 -15 -10 -15 -5 0 -10 7 -10 15 0 8 5 15 10 15 6
0 10 -7 10 -15z"/>
<path d="M2434 5099 c-19 -21 -19 -21 9 -8 15 7 27 16 27 21 0 14 -16 9 -36
-13z"/>
<path d="M3126 5098 c-10 -48 -45 -266 -51 -318 l-6 -55 35 53 c19 30 42 59
52 66 10 8 17 26 17 44 0 20 5 28 13 25 6 -2 15 1 19 7 6 9 10 9 16 -1 5 -9
16 5 33 43 14 30 32 61 41 68 8 7 15 23 15 36 0 12 5 26 10 29 28 17 1 25 -90
25 -95 0 -100 -1 -104 -22z"/>
<path d="M3350 5096 c0 -27 15 -42 25 -26 3 5 11 10 17 10 7 0 6 -6 -2 -15 -7
-8 -21 -15 -31 -15 -28 0 -27 -56 1 -65 11 -3 20 -11 20 -16 0 -6 5 -7 11 -3
8 4 2 12 -15 21 -15 8 -24 18 -21 23 3 6 19 0 35 -11 24 -18 27 -25 19 -46
-13 -34 -11 -46 5 -40 9 4 13 1 11 -6 -3 -7 -1 -19 5 -27 7 -12 12 -12 22 -2
14 14 32 16 23 2 -4 -7 3 -7 19 0 28 10 34 2 14 -19 -11 -11 -10 -12 0 -6 10
5 12 -1 7 -29 -4 -20 -3 -36 1 -36 13 1 50 32 60 52 14 26 195 230 200 225 8
-8 -46 -145 -94 -242 -19 -39 -63 -86 -73 -79 -5 3 -6 -1 -3 -9 3 -8 -2 -20
-11 -27 -8 -7 -15 -17 -15 -23 0 -5 9 -2 19 7 15 13 20 14 23 4 3 -8 9 -5 17
11 8 14 9 21 2 17 -17 -11 -13 10 4 24 19 16 19 2 0 -105 -19 -108 -19 -165 0
-165 12 0 13 4 3 25 -22 48 69 422 93 383 6 -8 9 -2 9 19 0 31 46 163 57 163
12 0 63 -35 67 -47 3 -7 0 -68 -5 -135 -6 -68 -13 -184 -16 -259 -4 -120 -2
-146 17 -215 14 -49 21 -100 20 -134 -6 -127 5 -266 22 -276 7 -5 9 5 4 29 -5
24 -3 37 6 40 10 4 8 9 -4 17 -21 13 -24 36 -5 43 10 4 10 6 0 6 -8 1 -13 17
-13 45 0 34 4 46 18 49 15 4 15 5 -2 6 -14 1 -17 6 -12 24 3 12 6 26 6 31 0 5
8 2 17 -5 11 -9 9 -3 -5 15 -12 16 -22 36 -22 45 0 9 -7 34 -15 56 -18 52 -21
199 -2 189 10 -6 10 -4 0 7 -7 7 -13 26 -13 41 0 16 6 28 13 28 9 0 8 3 -2 9
-10 7 -12 23 -7 67 3 33 9 105 12 162 4 56 10 102 14 102 5 0 39 -25 76 -55
38 -30 98 -71 134 -92 64 -37 171 -106 220 -142 65 -47 114 -74 222 -120 64
-28 180 -85 258 -127 130 -71 297 -140 309 -128 8 8 -19 22 -79 40 -104 32
-218 97 -220 125 0 6 132 -15 160 -25 8 -3 43 -12 78 -20 47 -11 62 -11 62 -2
0 7 -26 17 -60 24 -32 7 -65 18 -72 25 -7 7 -31 12 -53 12 -116 2 -293 53
-318 93 -5 7 -12 10 -16 7 -14 -8 -71 16 -64 27 4 7 -3 9 -21 4 -22 -5 -42 3
-103 41 -42 26 -81 56 -87 66 -6 9 -17 17 -24 17 -8 0 -37 15 -65 34 -29 18
-74 47 -102 62 -27 16 -94 62 -147 101 -74 56 -98 80 -103 103 -9 40 -23 47
-17 8 l5 -31 -26 19 c-15 10 -27 25 -27 32 0 8 -18 12 -54 12 -60 0 -60 0
-163 -114 -63 -69 -72 -70 -52 -6 6 19 12 46 14 60 1 14 6 33 10 43 7 16 -2
17 -109 17 l-116 0 0 -24z m1455 -586 c8 -13 -15 -13 -35 0 -12 8 -11 10 7 10
12 0 25 -4 28 -10z"/>
<path d="M4505 5102 c5 -16 1 -31 -12 -45 -18 -22 -18 -22 3 -4 11 9 23 17 26
17 13 0 48 -73 44 -89 -3 -9 -1 -23 4 -31 8 -12 10 -12 10 5 0 20 90 -150 90
-171 0 -7 6 -14 14 -17 14 -5 18 23 4 33 -14 11 -88 163 -88 180 0 11 -5 22
-10 25 -6 3 -15 26 -21 50 -6 25 -18 50 -27 57 -13 11 -14 10 -7 -12 l8 -25
-22 25 -22 25 6 -23z"/>
<path d="M4668 5101 c80 -85 82 -88 73 -118 -5 -17 -14 -40 -21 -52 -6 -13 -9
-25 -6 -28 2 -3 12 11 20 31 8 20 20 36 27 36 8 0 8 4 -1 15 -10 12 -10 15 1
15 8 0 3 11 -12 28 -57 63 -57 65 -3 44 179 -71 188 -76 274 -157 47 -44 88
-86 92 -95 4 -8 7 13 7 48 1 43 -3 62 -11 62 -14 1 -78 50 -65 50 4 0 23 -7
42 -14 41 -17 41 -15 21 62 -11 44 -11 52 0 52 8 0 14 5 14 10 0 6 -11 10 -24
10 -14 0 -37 5 -53 10 -26 9 -27 9 -9 -5 11 -8 23 -15 28 -15 12 0 38 -57 38
-85 0 -14 -5 -25 -10 -25 -26 0 -107 48 -155 91 -48 45 -57 49 -101 49 l-49
-1 24 -19 c29 -25 28 -25 -37 0 -29 11 -68 20 -87 20 -34 0 -34 -1 -17 -19z"/>
<path d="M624 5086 c16 -13 25 -29 22 -35 -4 -6 -3 -11 2 -11 13 0 22 24 14
36 -8 11 -49 34 -59 34 -5 -1 5 -11 21 -24z"/>
<path d="M2278 5090 c-10 -10 -14 -22 -9 -24 4 -3 13 6 19 19 14 30 12 31 -10
5z"/>
<path d="M2321 5087 c-13 -21 -12 -21 5 -5 10 10 16 20 13 22 -3 3 -11 -5 -18
-17z"/>
<path d="M4310 5105 c0 -8 83 -86 87 -81 4 3 -76 86 -83 86 -2 0 -4 -2 -4 -5z"/>
<path d="M750 5050 c-23 -7 -23 -8 12 -14 20 -5 44 -6 55 -3 12 3 10 5 -9 6
-14 0 -28 5 -30 9 -1 5 -14 5 -28 2z"/>
<path d="M2295 5049 c-4 -6 -5 -12 -2 -15 2 -3 7 2 10 11 7 17 1 20 -8 4z"/>
<path d="M1346 5041 c-4 -7 -5 -15 -2 -18 9 -9 19 4 14 18 -4 11 -6 11 -12 0z"/>
<path d="M2245 5029 c-4 -6 -5 -12 -2 -15 2 -3 7 2 10 11 7 17 1 20 -8 4z"/>
<path d="M4437 5022 c-22 -3 -26 -6 -18 -16 12 -14 61 -10 61 5 0 12 -12 15
-43 11z"/>
<path d="M446 4965 c-3 -8 -1 -15 4 -15 6 0 10 7 10 15 0 8 -2 15 -4 15 -2 0
-6 -7 -10 -15z"/>
<path d="M431 4924 c0 -11 3 -14 6 -6 3 7 2 16 -1 19 -3 4 -6 -2 -5 -13z"/>
<path d="M1174 4915 c-10 -8 -14 -15 -8 -15 5 0 19 7 30 15 10 8 14 15 8 15
-5 0 -19 -7 -30 -15z"/>
<path d="M641 4874 c0 -11 3 -14 6 -6 3 7 2 16 -1 19 -3 4 -6 -2 -5 -13z"/>
<path d="M4560 4880 c0 -4 8 -10 18 -14 9 -3 22 -9 29 -12 7 -3 10 2 6 14 -3
13 -13 20 -29 20 -13 0 -24 -4 -24 -8z"/>
<path d="M4695 4877 c-14 -11 -15 -16 -5 -22 11 -7 29 9 30 28 0 10 -3 9 -25
-6z"/>
<path d="M2300 4869 c0 -5 5 -7 10 -4 6 3 10 8 10 11 0 2 -4 4 -10 4 -5 0 -10
-5 -10 -11z"/>
<path d="M3620 4873 c0 -9 40 -36 45 -31 2 2 -8 11 -21 21 -13 10 -24 14 -24
10z"/>
<path d="M3589 4783 c-13 -16 -12 -17 4 -4 9 7 17 15 17 17 0 8 -8 3 -21 -13z"/>
<path d="M4711 4726 c7 -15 15 -23 17 -16 3 7 -3 19 -13 28 -15 16 -16 15 -4
-12z"/>
<path d="M4910 4732 c0 -5 7 -15 15 -22 8 -7 15 -8 15 -2 0 5 -7 15 -15 22 -8
7 -15 8 -15 2z"/>
<path d="M4656 4720 c-15 -5 -16 -9 -7 -14 7 -5 18 -3 24 3 14 14 6 20 -17 11z"/>
<path d="M1113 4706 c11 -8 25 -12 33 -9 18 7 16 9 -21 17 -28 6 -29 5 -12 -8z"/>
<path d="M5060 4678 c-49 -16 -51 -18 -16 -14 l38 5 -18 -22 c-19 -22 -19 -22
2 -4 11 9 26 17 33 17 7 0 10 4 7 9 -4 5 0 11 6 14 7 2 11 6 8 9 -3 3 -30 -4
-60 -14z"/>
<path d="M4730 4673 c0 -12 7 -23 15 -27 13 -5 14 -2 4 17 -17 32 -19 33 -19
10z"/>
<path d="M4950 4660 c0 -13 -53 -30 -82 -26 -15 2 -25 -1 -22 -5 3 -5 1 -9 -4
-9 -6 0 -13 -7 -16 -15 -5 -14 -4 -14 16 0 13 8 29 15 38 15 8 0 37 8 64 19
39 15 45 19 27 24 -11 3 -21 2 -21 -3z"/>
<path d="M3549 4623 c-13 -16 -12 -17 4 -4 16 13 21 21 13 21 -2 0 -10 -8 -17
-17z"/>
<path d="M4760 4618 c0 -7 5 -20 10 -28 8 -12 10 -11 10 7 0 12 -4 25 -10 28
-5 3 -10 0 -10 -7z"/>
<path d="M4720 4610 c0 -6 7 -10 15 -10 8 0 15 2 15 4 0 2 -7 6 -15 10 -8 3
-15 1 -15 -4z"/>
<path d="M4980 4606 c0 -22 30 -33 41 -15 5 8 9 19 9 24 0 6 -4 4 -9 -4 -8
-12 -12 -12 -25 -2 -14 11 -16 11 -16 -3z"/>
<path d="M3476 4575 c-3 -8 -1 -15 3 -15 5 0 11 7 15 15 3 8 1 15 -3 15 -5 0
-11 -7 -15 -15z"/>
<path d="M3820 4580 c0 -5 5 -10 11 -10 5 0 7 5 4 10 -3 6 -8 10 -11 10 -2 0
-4 -4 -4 -10z"/>
<path d="M990 4536 c0 -2 7 -7 16 -10 8 -3 12 -2 9 4 -6 10 -25 14 -25 6z"/>
<path d="M3425 4530 c-3 -5 -2 -10 4 -10 5 0 13 5 16 10 3 6 2 10 -4 10 -5 0
-13 -4 -16 -10z"/>
<path d="M86 4493 c-6 -14 -5 -15 5 -6 7 7 10 15 7 18 -3 3 -9 -2 -12 -12z"/>
<path d="M1075 4490 c3 -5 11 -10 16 -10 6 0 7 5 4 10 -3 6 -11 10 -16 10 -6
0 -7 -4 -4 -10z"/>
<path d="M3438 4489 c-24 -14 -23 -28 2 -22 25 7 49 33 29 33 -8 0 -22 -5 -31
-11z"/>
<path d="M2021 4483 c-1 -6 -4 -20 -7 -30 -5 -17 -5 -17 6 0 6 10 9 23 6 30
-3 9 -5 9 -5 0z"/>
<path d="M2146 4481 c-3 -5 -21 -16 -41 -25 -41 -20 -48 -40 -8 -25 29 11 82
59 65 59 -6 0 -13 -4 -16 -9z"/>
<path d="M2920 4481 c0 -7 -16 -19 -36 -27 -42 -18 -44 -47 -2 -51 23 -1 27 3
36 40 6 23 9 43 6 46 -2 2 -4 -1 -4 -8z"/>
<path d="M3621 4454 c0 -11 3 -14 6 -6 3 7 2 16 -1 19 -3 4 -6 -2 -5 -13z"/>
<path d="M3604 4406 c-3 -14 -4 -33 -1 -43 3 -12 5 -9 6 10 0 15 8 30 16 33 8
4 12 10 9 15 -10 16 -24 9 -30 -15z"/>
<path d="M5100 4415 c-11 -13 -10 -14 4 -9 9 3 16 10 16 15 0 13 -6 11 -20 -6z"/>
<path d="M2918 4381 c-10 -20 -18 -47 -18 -59 0 -18 -6 -22 -31 -22 -17 0 -45
10 -62 22 -18 13 -44 24 -59 24 -24 1 -29 -3 -38 -37 -6 -22 -16 -39 -21 -39
-6 0 -8 7 -5 16 4 10 1 14 -6 11 -8 -2 -12 -17 -9 -38 7 -68 6 -74 -9 -71 -8
2 -12 0 -8 -4 4 -4 3 -13 -3 -20 -6 -7 -7 -19 -3 -25 5 -9 10 -5 16 12 l10 24
28 -34 c31 -36 31 -51 -1 -51 -15 0 -19 -8 -20 -37 -1 -27 -3 -31 -6 -13 -2
14 -10 30 -17 35 -6 6 -17 26 -23 45 l-11 35 -2 -40 c-2 -28 -4 -33 -7 -16 -4
19 -7 21 -14 10 -6 -10 -9 -5 -9 18 0 25 -4 31 -15 27 -11 -5 -15 1 -16 22 -1
18 -3 22 -6 11 -4 -14 -8 -16 -19 -6 -11 9 -17 9 -29 -1 -8 -6 -19 -9 -25 -5
-6 4 -10 -9 -10 -37 1 -41 1 -42 14 -19 16 30 26 11 18 -36 -2 -18 1 -39 7
-47 9 -11 9 -15 0 -18 -7 -2 -6 -8 4 -16 12 -11 15 -10 13 4 0 9 5 19 12 21
15 6 48 -67 35 -76 -5 -3 -10 -17 -10 -31 -2 -23 -1 -23 11 -7 20 26 25 21 32
-33 6 -47 24 -81 24 -46 0 24 28 19 36 -6 6 -20 7 -20 16 -4 7 12 7 26 -1 42
-6 13 -7 24 -2 24 5 0 12 -8 16 -17 7 -17 8 -16 15 2 7 19 9 18 19 -7 13 -36
23 -36 15 -2 -8 30 2 28 45 -10 l24 -21 -12 22 c-6 12 -16 25 -21 28 -6 3 -10
18 -10 33 l0 27 13 -25 c8 -14 19 -24 27 -22 8 2 10 -3 6 -14 -3 -9 -1 -23 6
-32 11 -12 11 -16 0 -20 -9 -3 -10 -7 -2 -17 6 -7 10 -17 9 -21 -1 -5 -1 -16
0 -24 1 -12 4 -11 12 3 6 9 7 27 3 39 -5 17 -3 20 10 15 9 -4 16 -1 16 4 0 20
-91 149 -101 143 -10 -6 -12 20 -3 54 9 31 15 28 46 -23 15 -25 31 -45 35 -45
5 0 14 14 21 32 6 17 14 29 17 26 3 -2 -2 -19 -11 -37 -9 -17 -13 -39 -10 -47
3 -8 2 -12 -4 -9 -16 10 -12 -5 10 -35 23 -32 62 -48 53 -21 -4 9 -3 13 2 9 4
-4 14 0 22 8 12 12 13 17 2 30 -11 13 -10 15 6 12 11 -2 21 3 22 12 2 10 -4
16 -17 17 -19 2 -24 -9 -23 -44 1 -18 -5 -16 -17 7 -9 18 -5 26 30 61 33 33
41 37 47 24 3 -9 1 -32 -5 -52 -9 -29 -8 -34 4 -29 17 7 19 -10 2 -18 -7 -3
-3 -3 10 0 26 6 28 -1 6 -23 -11 -11 -12 -19 -5 -26 6 -6 11 -23 11 -38 0 -15
5 -31 10 -34 13 -8 13 1 0 44 -7 25 -6 38 3 49 16 20 16 62 0 62 -7 0 -13 9
-13 20 0 11 4 20 8 20 5 0 15 11 22 25 7 14 18 25 23 25 6 0 5 -5 -1 -12 -5
-7 -12 -24 -14 -38 -5 -39 25 -37 47 5 11 19 26 35 33 35 7 0 10 4 7 10 -3 5
0 7 8 4 15 -5 33 24 21 35 -4 3 -9 0 -11 -6 -8 -22 -25 -14 -18 7 7 22 -5 26
-23 8 -9 -9 -12 -8 -12 4 0 23 -20 34 -31 17 -5 -8 -9 -10 -9 -5 0 5 -6 4 -12
-2 -9 -6 -18 -4 -30 7 -16 16 -16 19 3 60 10 24 19 58 19 76 0 18 4 35 8 37
14 5 1 78 -13 78 -7 0 -18 6 -24 14 -7 8 -26 18 -42 21 -16 4 -29 13 -29 21 0
25 -15 14 -32 -25z m-338 -273 c0 -5 -4 -8 -10 -8 -5 0 -10 10 -10 23 0 18 2
19 10 7 5 -8 10 -18 10 -22z m240 -39 c0 -11 -4 -18 -10 -14 -5 3 -7 12 -3 20
7 21 13 19 13 -6z m-87 -29 c3 -11 1 -23 -4 -26 -5 -3 -9 6 -9 20 0 31 6 34
13 6z m190 -67 c-9 -13 -17 -23 -19 -23 -2 0 -4 10 -4 23 0 16 6 23 19 23 17
0 17 -2 4 -23z m-25 -98 c-3 -3 -9 2 -12 12 -6 14 -5 15 5 6 7 -7 10 -15 7
-18z"/>
<path d="M1220 4332 c1 -15 8 -40 16 -57 8 -16 12 -22 9 -12 -16 58 -17 70 -6
77 9 5 9 9 -3 13 -12 5 -16 0 -16 -21z"/>
<path d="M3750 4350 c0 -5 5 -10 10 -10 6 0 10 5 10 10 0 6 -4 10 -10 10 -5 0
-10 -4 -10 -10z"/>
<path d="M4955 4337 c-22 -25 -19 -28 13 -11 15 7 33 14 40 14 6 0 12 4 12 9
0 16 -49 7 -65 -12z"/>
<path d="M2211 4334 c0 -11 3 -14 6 -6 3 7 2 16 -1 19 -3 4 -6 -2 -5 -13z"/>
<path d="M3411 4304 c-19 -8 -31 -17 -28 -20 10 -11 54 5 61 21 3 8 4 15 3 15
-1 -1 -17 -7 -36 -16z"/>
<path d="M2192 4271 c-9 -27 -16 -31 -46 -31 -37 0 -50 -16 -18 -22 37 -8 106
52 84 74 -6 6 -13 -1 -20 -21z"/>
<path d="M1925 4270 c3 -5 11 -10 16 -10 6 0 7 5 4 10 -3 6 -11 10 -16 10 -6
0 -7 -4 -4 -10z"/>
<path d="M1982 4254 c13 -14 31 -20 70 -21 l53 -1 -55 12 c-30 6 -62 16 -70
20 -11 7 -10 4 2 -10z"/>
<path d="M2292 4209 c-1 -24 2 -38 8 -34 6 3 10 -3 10 -14 0 -12 4 -21 8 -21
14 0 32 23 32 40 0 16 -40 70 -51 70 -3 0 -6 -18 -7 -41z"/>
<path d="M4077 4218 c-10 -11 -17 -21 -15 -22 2 -1 12 -8 23 -16 19 -14 19
-14 6 3 -12 15 -11 20 4 37 10 11 14 20 9 19 -5 0 -17 -10 -27 -21z"/>
<path d="M4230 4221 c0 -13 8 -17 50 -26 42 -9 37 -1 -13 20 -20 8 -37 11 -37
6z"/>
<path d="M2250 4216 c0 -2 7 -7 16 -10 8 -3 12 -2 9 4 -6 10 -25 14 -25 6z"/>
<path d="M4950 4211 c0 -6 4 -13 10 -16 6 -3 7 1 4 9 -7 18 -14 21 -14 7z"/>
<path d="M2421 4192 c-6 -12 -17 -21 -23 -19 -7 1 -13 -7 -15 -18 l-3 -20 10
20 c8 16 9 14 5 -14 -3 -18 -5 -41 -5 -50 0 -11 -4 -8 -13 8 -16 32 -31 28
-38 -11 -6 -30 -9 -29 -13 2 -2 17 -20 13 -27 -7 -6 -14 -8 -14 -9 -3 -2 8 -2
20 -1 27 1 6 -7 9 -18 6 -13 -3 -17 -11 -13 -26 5 -20 4 -20 -11 -8 -11 9 -17
9 -17 2 0 -6 9 -16 20 -23 11 -7 20 -21 20 -31 0 -10 4 -16 8 -13 4 2 20 -16
35 -40 15 -25 23 -43 17 -39 -11 7 -13 -9 -4 -42 4 -13 10 -23 15 -23 5 0 6 8
3 18 -4 9 3 4 15 -13 19 -28 21 -28 21 -7 0 25 15 30 24 7 7 -18 52 -20 59 -2
4 10 6 10 6 0 1 -7 6 -13 11 -13 15 0 12 20 -10 65 -23 47 -26 72 -4 32 8 -16
21 -26 27 -24 15 5 22 47 8 47 -6 0 -11 -8 -11 -17 0 -14 -4 -12 -18 8 -9 14
-24 25 -33 24 -13 -2 -15 6 -13 48 1 27 6 53 11 56 12 8 14 81 3 100 -6 11
-10 10 -19 -7z m-33 -146 c-1 -14 -5 -23 -9 -20 -7 4 0 44 7 44 2 0 3 -11 2
-24z"/>
<path d="M4328 4194 c-3 -3 10 -20 29 -39 31 -30 97 -55 111 -41 3 3 -2 6 -12
6 -19 0 -95 45 -112 66 -6 7 -13 11 -16 8z"/>
<path d="M1030 4180 c0 -5 5 -10 11 -10 5 0 7 5 4 10 -3 6 -8 10 -11 10 -2 0
-4 -4 -4 -10z"/>
<path d="M3407 4183 c-13 -13 -7 -21 13 -16 11 3 17 9 14 14 -6 11 -18 12 -27
2z"/>
<path d="M2357 4165 c-4 -8 -3 -16 1 -19 4 -3 9 4 9 15 2 23 -3 25 -10 4z"/>
<path d="M2610 4170 c0 -5 5 -10 11 -10 5 0 7 5 4 10 -3 6 -8 10 -11 10 -2 0
-4 -4 -4 -10z"/>
<path d="M2236 4156 c3 -9 11 -16 16 -16 13 0 5 23 -10 28 -7 2 -10 -2 -6 -12z"/>
<path d="M3551 4153 c-16 -17 -12 -23 11 -14 10 3 14 11 10 17 -5 9 -11 8 -21
-3z"/>
<path d="M3413 4130 c-20 -25 -21 -29 -6 -34 9 -4 21 -1 27 5 8 9 7 10 -4 4
-12 -7 -13 -6 -4 6 15 19 25 49 16 48 -4 0 -17 -13 -29 -29z"/>
<path d="M4115 4150 c3 -5 14 -10 23 -10 15 0 15 2 2 10 -20 13 -33 13 -25 0z"/>
<path d="M4265 4140 c4 -6 11 -8 16 -5 14 9 11 15 -7 15 -8 0 -12 -5 -9 -10z"/>
<path d="M3490 4122 c0 -5 6 -15 14 -21 11 -9 15 -8 20 6 4 10 4 14 0 10 -4
-4 -13 -2 -21 4 -8 7 -13 8 -13 1z"/>
<path d="M4484 4102 c3 -5 16 -12 28 -15 13 -3 46 -12 73 -20 42 -13 47 -14
31 -2 -11 8 -29 15 -41 15 -12 0 -25 4 -30 9 -14 12 -68 24 -61 13z"/>
<path d="M3216 4075 c-27 -25 -37 -46 -11 -25 8 7 15 9 15 5 0 -5 9 0 20 10
21 19 26 35 11 35 -4 0 -20 -11 -35 -25z"/>
<path d="M4670 4061 c0 -8 -6 -11 -15 -7 -8 3 -15 2 -15 -3 0 -4 23 -13 51
-19 64 -15 70 -15 63 2 -3 8 -15 11 -31 8 -18 -3 -30 1 -40 13 -8 12 -13 14
-13 6z"/>
<path d="M2476 4052 c-3 -6 -1 -14 5 -17 14 -9 20 -2 10 14 -6 8 -11 9 -15 3z"/>
<path d="M4075 4030 c10 -11 26 -22 36 -25 11 -4 17 -11 14 -16 -4 -5 -2 -9 4
-9 5 0 17 -3 26 -6 23 -9 -34 48 -64 63 -33 18 -37 16 -16 -7z"/>
<path d="M1390 4012 c0 -11 -19 -19 -60 -27 -12 -2 -33 3 -46 11 -23 15 -56
13 -53 -3 4 -24 -3 -34 -18 -29 -31 9 -47 -8 -33 -34 11 -21 10 -22 -12 -18
-19 4 -24 1 -23 -15 2 -23 21 -45 94 -107 93 -79 118 -105 118 -122 0 -22 -10
-23 -27 -3 -7 9 -15 13 -18 11 -6 -7 59 -65 80 -72 10 -3 18 -10 18 -15 0 -10
-37 8 -77 37 -20 14 -23 15 -23 1 0 -29 -29 -26 -77 9 -26 19 -52 34 -57 34
-5 0 -19 8 -30 18 l-21 17 20 -25 c51 -64 99 -100 157 -119 20 -7 38 -17 41
-24 4 -12 -35 -37 -59 -37 -21 0 -17 -20 4 -21 11 0 12 -2 4 -6 -7 -3 -19 1
-28 8 -11 9 -18 9 -26 1 -7 -7 -9 -14 -6 -18 10 -9 78 -25 133 -31 49 -5 75
-17 63 -29 -4 -3 -22 0 -42 7 -37 13 -58 7 -39 -12 10 -10 51 -13 98 -7 14 2
20 -3 20 -17 0 -12 8 -21 20 -23 11 -2 30 -13 41 -23 12 -11 26 -19 32 -17 6
2 17 -5 24 -14 7 -9 26 -20 42 -24 27 -6 27 -5 16 15 -6 12 -19 25 -28 29 -9
3 -26 15 -37 25 -20 19 -20 19 12 3 18 -9 35 -15 37 -14 3 2 16 -12 30 -31 30
-40 62 -64 79 -58 7 2 1 14 -17 30 -19 18 -29 39 -33 69 -5 41 -26 78 -45 78
-5 0 -21 11 -36 25 -15 14 -37 28 -49 31 -13 4 -42 24 -65 46 -46 43 -42 42
40 -9 29 -19 58 -31 64 -27 6 4 8 3 5 -3 -3 -5 8 -20 25 -33 18 -14 33 -19 35
-13 7 21 39 1 61 -38 13 -23 26 -38 29 -35 3 3 -2 17 -11 31 -9 14 -14 34 -11
45 3 10 1 21 -4 25 -7 4 -9 -1 -5 -12 5 -17 5 -17 -10 1 -13 16 -13 21 -1 32
17 18 49 19 39 2 -4 -7 -4 -10 1 -6 4 4 14 3 22 -3 16 -14 17 -5 3 22 -6 10
-7 19 -2 19 5 0 14 -10 21 -22 28 -54 39 -69 47 -69 5 1 9 8 9 16 0 29 19 16
32 -22 19 -53 37 -68 28 -23 -5 27 -4 31 5 20 8 -11 10 1 8 52 -2 51 0 64 9
56 7 -6 10 -22 6 -39 -8 -43 12 -36 31 11 9 22 15 44 15 48 -4 25 3 41 15 36
11 -4 13 0 9 15 -3 11 -9 18 -14 15 -11 -7 -11 7 0 24 6 11 10 10 15 -4 6 -16
8 -16 21 2 8 10 15 27 15 37 0 10 5 15 10 12 16 -10 12 18 -7 45 -12 17 -14
25 -4 28 9 3 9 7 0 18 -6 8 -14 12 -18 9 -4 -2 -22 10 -41 26 -28 26 -32 27
-27 10 4 -18 3 -19 -15 -10 -19 10 -20 9 -14 -14 3 -15 1 -27 -5 -29 -11 -4 8
-58 21 -58 4 0 5 -11 2 -25 -2 -15 0 -25 7 -25 6 0 11 8 11 17 0 14 3 14 12 5
10 -10 10 -19 -3 -41 -10 -17 -13 -34 -8 -43 8 -15 1 -93 -8 -84 -3 2 -9 23
-14 47 -11 48 -34 80 -103 149 -43 42 -47 61 -8 37 7 -5 12 -3 12 3 0 6 5 8
11 4 6 -3 3 5 -6 20 -10 14 -14 26 -10 26 5 0 1 8 -8 18 -10 10 -14 22 -10 26
13 13 11 35 -5 48 -13 11 -15 10 -9 -4 9 -25 -8 -22 -26 5 -8 12 -18 19 -23
14 -4 -4 -2 -13 4 -19 7 -7 12 -19 12 -27 -1 -13 -4 -12 -16 4 -8 11 -19 21
-24 21 -6 1 -16 2 -24 3 -9 1 -16 15 -18 39 -3 31 -5 34 -13 17 -4 -11 -16
-32 -26 -46 -11 -16 -16 -34 -12 -48 6 -23 5 -23 -26 -7 -27 15 -31 15 -31 1
0 -8 9 -24 19 -34 13 -13 16 -21 8 -24 -14 -4 -32 28 -49 86 -7 26 -13 35 -15
25 -6 -27 -20 -22 -26 10 -7 36 -2 39 24 16 20 -18 79 -27 79 -11 0 16 2 23
12 35 11 13 -7 62 -23 62 -15 0 -21 -22 -10 -33 22 -22 11 -30 -12 -9 -13 12
-27 19 -30 15 -4 -3 -13 1 -20 10 -19 26 -52 12 -54 -23 -1 -16 2 -32 7 -35 6
-4 10 -13 10 -21 0 -10 -9 -6 -26 13 l-25 28 7 -25 c7 -24 5 -23 -20 7 -14 17
-24 38 -21 45 3 8 -1 21 -10 28 -9 7 -15 8 -15 2z m282 -128 c-3 -15 -8 -22
-14 -16 -9 9 -1 42 12 42 4 0 5 -12 2 -26z m-182 -58 c0 -3 -4 -8 -10 -11 -5
-3 -10 -1 -10 4 0 6 5 11 10 11 6 0 10 -2 10 -4z m60 -6 c0 -5 -2 -10 -4 -10
-3 0 -8 5 -11 10 -3 6 -1 10 4 10 6 0 11 -4 11 -10z m130 -31 c0 -4 10 -5 22
-1 17 4 20 2 15 -11 -4 -11 -2 -14 7 -11 19 7 25 -7 15 -33 -10 -28 -30 -29
-47 -3 -8 13 -8 20 -1 20 5 0 7 5 4 10 -10 16 -25 12 -25 -7 -1 -14 -4 -12
-15 7 -19 33 -19 36 5 36 11 0 20 -3 20 -7z m1 -140 c-7 -33 -7 -33 -14 -9 -3
14 -3 26 2 28 4 1 6 15 4 30 -3 24 -2 24 6 6 5 -11 6 -36 2 -55z m158 -143
c-3 -3 -11 5 -18 17 -13 21 -12 21 5 5 10 -10 16 -20 13 -22z"/>
<path d="M1797 4013 c-9 -14 1 -63 13 -63 4 0 10 7 14 15 3 8 1 15 -4 15 -5 0
-10 10 -12 23 -2 14 -6 18 -11 10z"/>
<path d="M2777 4006 c-3 -8 -2 -18 3 -21 13 -8 20 9 11 24 -6 10 -10 9 -14 -3z"/>
<path d="M1840 4001 c0 -5 5 -13 10 -16 6 -3 10 -2 10 4 0 5 -4 13 -10 16 -5
3 -10 2 -10 -4z"/>
<path d="M5103 3999 c-8 -8 -52 -10 -132 -7 -77 3 -118 1 -111 -6 5 -5 48 -9
95 -9 l85 1 -22 -23 c-13 -12 -30 -24 -38 -27 -10 -3 -11 -6 -3 -11 7 -4 24 4
39 18 15 14 32 25 37 25 7 0 7 -3 2 -8 -6 -4 -37 -30 -70 -57 -33 -28 -78 -67
-100 -87 -42 -41 -55 -46 -55 -23 0 8 -4 15 -10 15 -13 0 -13 -13 1 -27 6 -6
8 -16 5 -22 -10 -15 -43 -14 -50 2 -3 6 -4 3 -3 -8 4 -34 -29 -28 -95 19 -35
25 -78 52 -95 60 -18 8 -33 21 -33 28 0 10 -2 10 -8 1 -6 -9 -17 -10 -38 -4
-16 5 -63 19 -104 31 -41 13 -104 35 -139 51 -35 16 -66 27 -69 25 -4 -4 52
-32 167 -82 18 -8 53 -17 77 -21 25 -3 47 -10 50 -14 3 -5 16 -9 30 -9 37 0
84 -27 127 -73 34 -38 44 -64 14 -39 -7 6 -28 12 -45 14 -18 1 -32 6 -32 10 0
3 -8 7 -17 7 -33 0 -68 8 -91 20 -13 7 -26 10 -29 7 -3 -3 -14 -1 -24 5 -11 5
-19 6 -19 1 0 -10 59 -36 120 -53 25 -7 49 -16 54 -21 6 -4 20 -8 33 -8 13 0
23 -4 23 -9 0 -4 14 -12 32 -17 17 -5 33 -15 36 -23 3 -8 0 -11 -7 -7 -6 4
-11 1 -11 -8 0 -9 -8 -16 -18 -16 -10 0 -23 -5 -29 -11 -8 -8 -13 -8 -17 0
-11 17 -26 13 -20 -4 9 -21 -25 -19 -43 3 -13 16 -14 15 -10 -5 4 -19 1 -23
-22 -23 -15 0 -31 -4 -36 -8 -6 -5 -30 -15 -55 -22 -25 -8 -50 -18 -57 -23 -7
-5 -17 -6 -23 -2 -5 3 -10 2 -10 -4 0 -5 -15 -8 -34 -7 -25 2 -33 0 -29 -10 8
-21 -31 -17 -50 4 -10 10 -17 24 -17 30 0 7 -5 12 -11 12 -7 0 -9 -9 -5 -22 3
-13 6 -31 6 -40 0 -23 34 -24 83 -3 20 8 56 16 81 17 26 0 44 3 41 6 -5 5 29
25 60 34 11 4 35 11 53 16 26 9 32 8 32 -4 0 -8 -7 -14 -15 -14 -8 0 -15 -9
-15 -19 0 -39 -76 -82 -125 -71 -5 1 -23 3 -40 4 -23 2 -29 6 -27 22 2 18 2
18 -9 1 -8 -13 -18 -17 -35 -13 -14 4 -24 2 -24 -4 0 -5 6 -10 13 -11 6 0 21
-2 32 -5 11 -2 50 -7 88 -10 37 -4 67 -11 67 -16 0 -11 92 98 108 128 8 16 25
23 64 28 29 3 78 11 108 17 30 6 60 10 65 10 49 -1 75 -6 75 -14 0 -5 7 -7 15
-3 18 6 19 -7 4 -35 -5 -11 -14 -17 -20 -14 -13 9 -11 -8 4 -30 9 -11 19 -15
27 -10 10 6 9 9 -1 16 -21 12 8 59 37 59 36 0 54 11 54 31 0 10 6 19 14 19 8
0 22 3 32 7 10 4 15 2 11 -4 -4 -6 4 -6 26 0 26 8 32 16 34 41 2 27 -1 31 -24
33 -19 1 -22 -1 -12 -8 8 -5 10 -9 4 -10 -5 -1 -14 -2 -20 -3 -5 0 -20 -7 -33
-14 -12 -7 -26 -11 -31 -8 -5 3 -14 -1 -21 -9 -14 -17 -48 -19 -70 -5 -13 8
-13 13 2 37 9 15 24 27 32 25 9 -1 29 4 44 12 16 8 32 13 35 10 8 -9 47 6 47
17 0 6 -9 7 -20 4 -20 -6 -28 9 -10 20 6 3 10 12 10 18 0 7 -16 -5 -35 -25
-34 -36 -65 -50 -65 -28 0 6 5 10 11 10 5 0 7 5 4 11 -7 10 -48 -30 -78 -75
-12 -18 -17 -19 -46 -7 -30 13 -31 15 -15 32 9 10 21 16 27 15 7 -2 9 -1 5 1
-5 3 -8 9 -8 14 0 18 76 93 168 167 86 68 112 96 100 107 -2 3 -9 0 -15 -6z
m-296 -286 c-9 -9 -20 -13 -24 -9 -4 4 -1 11 7 16 25 16 35 11 17 -7z m-83
-49 c5 -14 4 -15 -9 -4 -17 14 -19 20 -6 20 5 0 12 -7 15 -16z m96 -24 c24
-15 7 -18 -30 -4 -31 11 -32 13 -10 13 14 0 32 -3 40 -9z m-55 -19 c16 -7 14
-9 -14 -14 -55 -11 -66 -9 -51 8 13 16 34 18 65 6z"/>
<path d="M1645 3990 c3 -5 8 -10 11 -10 2 0 4 5 4 10 0 6 -5 10 -11 10 -5 0
-7 -4 -4 -10z"/>
<path d="M2065 3981 c-3 -5 -1 -12 5 -16 5 -3 10 1 10 9 0 18 -6 21 -15 7z"/>
<path d="M3916 3965 c28 -28 34 -30 34 -14 0 14 -30 38 -47 39 -7 0 -1 -11 13
-25z"/>
<path d="M2261 3964 c0 -11 3 -14 6 -6 3 7 2 16 -1 19 -3 4 -6 -2 -5 -13z"/>
<path d="M2007 3916 c2 -27 10 -54 17 -60 8 -6 17 -18 20 -26 3 -8 4 -4 2 10
l-5 25 20 -24 c20 -25 25 -21 10 8 -7 12 -6 26 3 43 10 19 11 28 1 41 -18 25
-45 21 -45 -5 0 -26 -16 -14 -23 17 -2 11 -3 -2 0 -29z"/>
<path d="M1825 3940 c-3 -5 -2 -10 4 -10 5 0 13 5 16 10 3 6 2 10 -4 10 -5 0
-13 -4 -16 -10z"/>
<path d="M2520 3936 c0 -2 7 -7 16 -10 8 -3 12 -2 9 4 -6 10 -25 14 -25 6z"/>
<path d="M895 3920 c-3 -5 1 -10 10 -10 9 0 13 5 10 10 -3 6 -8 10 -10 10 -2
0 -7 -4 -10 -10z"/>
<path d="M2297 3899 c4 -13 8 -18 11 -10 2 7 -1 18 -6 23 -8 8 -9 4 -5 -13z"/>
<path d="M4795 3910 c3 -5 10 -10 16 -10 5 0 9 5 9 10 0 6 -7 10 -16 10 -8 0
-12 -4 -9 -10z"/>
<path d="M3081 3894 c0 -11 3 -14 6 -6 3 7 2 16 -1 19 -3 4 -6 -2 -5 -13z"/>
<path d="M3111 3894 c0 -11 3 -14 6 -6 3 7 2 16 -1 19 -3 4 -6 -2 -5 -13z"/>
<path d="M1846 3887 c3 -10 9 -15 12 -12 3 3 0 11 -7 18 -10 9 -11 8 -5 -6z"/>
<path d="M2944 3826 c4 -18 3 -25 -3 -21 -7 4 -8 0 -4 -10 5 -13 7 -14 14 -3
12 19 11 46 -2 54 -9 5 -10 -1 -5 -20z"/>
<path d="M2764 3799 l0 -40 14 27 c12 22 12 29 0 40 -11 11 -13 7 -14 -27z"/>
<path d="M2506 3815 c4 -8 7 -15 9 -15 2 0 5 7 9 15 3 9 0 15 -9 15 -9 0 -12
-6 -9 -15z"/>
<path d="M2640 3820 c0 -8 5 -22 10 -30 9 -13 10 -13 10 0 0 8 -5 22 -10 30
-9 13 -10 13 -10 0z"/>
<path d="M2528 3778 c-3 -7 2 -19 9 -27 19 -18 22 -11 7 17 -8 16 -13 19 -16
10z"/>
<path d="M2153 3739 c3 -23 10 -46 15 -51 7 -7 8 2 2 27 -5 21 -6 44 -3 51 3
8 0 14 -7 14 -9 0 -11 -12 -7 -41z"/>
<path d="M2071 3724 c0 -11 3 -14 6 -6 3 7 2 16 -1 19 -3 4 -6 -2 -5 -13z"/>
<path d="M3776 3711 c-8 -13 -8 -70 -1 -107 l7 -32 -81 -31 c-44 -17 -83 -31
-87 -31 -3 0 -20 -6 -37 -14 -18 -7 -66 -26 -107 -41 -41 -16 -154 -69 -250
-119 -326 -168 -388 -197 -487 -223 -95 -25 -109 -26 -433 -28 -428 -4 -472
-8 -920 -91 -169 -32 -380 -44 -380 -22 0 7 5 19 10 24 7 7 7 19 1 35 -7 19
-4 30 11 48 l19 24 -32 33 -31 32 28 36 c16 20 34 36 39 36 6 0 2 5 -9 11 -14
9 -20 8 -27 -2 -6 -10 -9 -8 -9 10 0 21 -2 22 -17 10 -15 -13 -16 -10 -10 26
4 27 3 35 -3 25 -5 -8 -10 -35 -10 -60 -1 -35 -3 -40 -10 -24 -5 12 -12 43
-15 70 -4 27 -11 56 -16 64 -5 9 -6 0 -2 -22 4 -25 2 -38 -5 -38 -7 0 -9 -7
-5 -17 4 -10 2 -14 -4 -10 -6 4 -13 19 -16 34 -7 34 -47 126 -53 121 -4 -5 48
-161 71 -213 24 -56 27 -74 12 -94 -13 -19 -15 -18 -51 30 -20 27 -40 57 -43
67 -6 15 -5 16 13 2 13 -10 10 -3 -9 22 -15 20 -27 49 -28 65 0 24 -2 25 -8 8
-5 -11 -6 -26 -3 -34 3 -9 1 -12 -6 -7 -7 4 -12 18 -12 32 0 13 -4 24 -9 24
-5 0 -17 31 -27 70 -10 38 -20 68 -22 66 -2 -2 3 -38 11 -79 12 -65 23 -89 84
-179 38 -57 67 -110 65 -117 -3 -8 0 -11 7 -7 19 12 12 -3 -34 -72 -25 -37
-45 -78 -45 -92 -1 -24 -1 -24 -15 -6 -11 14 -12 22 -4 27 7 4 0 12 -17 21
-16 8 -28 20 -26 27 1 8 9 47 17 87 8 41 17 80 20 87 4 6 -2 1 -13 -13 -11
-13 -20 -27 -19 -30 4 -13 -26 -99 -33 -95 -4 3 -11 20 -14 39 -4 19 -13 37
-21 39 -12 5 -12 0 0 -34 13 -36 13 -39 -3 -39 -9 0 -33 24 -52 53 -94 142
-130 203 -130 224 0 13 -4 23 -10 23 -5 0 -6 -7 -3 -17 4 -11 3 -14 -5 -9 -7
4 -12 5 -12 2 0 -7 161 -259 169 -266 23 -18 81 -114 77 -126 -3 -7 2 -30 10
-49 8 -20 12 -41 8 -47 -4 -6 -3 -8 3 -5 6 4 13 -2 16 -13 10 -37 30 -23 23
15 -7 34 12 73 28 58 10 -11 7 -45 -4 -38 -6 4 -2 -11 9 -32 17 -33 19 -47 11
-108 -5 -38 -8 -70 -7 -71 1 -1 11 -6 22 -12 20 -11 20 -11 -2 -12 -15 0 -20
-5 -16 -18 3 -12 -4 -22 -21 -30 -14 -6 -26 -15 -26 -20 0 -17 13 -21 31 -11
15 8 19 6 19 -9 0 -10 -6 -24 -12 -31 -11 -10 -9 -11 7 -5 17 7 18 6 7 -8 -7
-9 -15 -29 -18 -44 -4 -24 -3 -26 11 -14 8 7 19 10 23 6 4 -4 -1 -13 -11 -20
-20 -15 -23 -42 -4 -49 6 -3 -8 -6 -32 -6 l-43 -1 7 -37 c7 -41 15 -54 22 -37
2 7 13 9 25 6 13 -3 19 -1 15 5 -11 17 54 25 72 9 9 -7 32 -16 51 -20 41 -7
67 -22 58 -32 -4 -3 -31 -15 -60 -24 -46 -16 -55 -16 -64 -4 -17 21 -94 16
-86 -5 3 -11 2 -13 -6 -6 -6 6 -20 44 -31 85 -12 41 -27 80 -34 85 -17 14 -37
61 -37 90 0 15 -6 25 -15 25 -14 0 -24 26 -23 65 1 11 -3 29 -7 40 -7 16 -2
15 22 -8 33 -31 46 -27 32 10 -5 14 -7 28 -4 31 2 3 1 10 -4 16 -4 6 -11 34
-15 61 -8 67 -54 202 -83 245 -13 19 -23 44 -23 55 0 11 -5 27 -10 35 -27 42
15 -102 49 -167 5 -10 17 -47 26 -83 9 -36 20 -80 25 -98 7 -27 6 -33 -6 -30
-8 2 -14 5 -12 8 1 3 -9 17 -22 32 -58 63 -76 85 -89 110 -8 15 -18 26 -24 25
-5 -1 -12 4 -15 12 -3 9 0 11 8 6 8 -5 11 -4 6 3 -4 6 -13 9 -20 6 -8 -3 -34
28 -71 86 -32 50 -60 89 -62 86 -3 -2 6 -18 18 -35 22 -30 22 -32 5 -49 -16
-16 -17 -16 -10 1 3 9 2 17 -2 18 -84 10 -97 2 -73 -43 9 -17 8 -19 -9 -14
-26 9 -38 -11 -20 -32 29 -34 32 -45 9 -33 -11 7 -21 18 -21 26 0 10 -10 14
-32 12 -25 -2 -34 -9 -44 -34 -9 -21 -20 -30 -31 -29 -26 4 -30 36 -4 36 12 0
20 7 20 18 -1 9 2 27 6 40 8 24 -12 31 -33 10 -8 -8 -15 -8 -27 2 -14 12 -18
11 -25 0 -7 -11 -13 -9 -29 11 -11 13 -20 27 -21 31 0 12 18 19 25 8 8 -12 55
-13 55 -1 0 5 -7 11 -15 15 -26 9 -18 36 11 36 19 0 25 4 22 18 -4 18 -38 22
-70 7 -15 -6 -18 -2 -18 28 0 20 -4 38 -10 42 -5 3 -9 -393 -10 -1070 l0
-1075 167 -1 c93 0 200 -2 238 -4 70 -3 70 -3 30 10 -22 7 -78 14 -124 14 -46
1 -82 3 -79 6 3 3 161 6 352 5 302 0 385 4 506 24 14 3 28 5 33 5 13 2 7 21
-6 21 -13 0 -28 24 -41 64 -4 10 -12 16 -20 13 -10 -4 -12 0 -9 14 3 11 -1 21
-10 25 -9 3 -14 11 -11 19 3 7 -1 19 -9 26 -52 52 -86 138 -65 165 9 12 1 44
-11 44 -4 0 -5 18 -3 40 3 24 -1 47 -9 56 -10 13 -10 17 1 24 12 7 11 10 -3
16 -12 4 -15 10 -8 18 12 15 2 86 -11 86 -6 0 -3 11 6 25 19 29 21 75 4 75 -8
0 -5 7 6 15 18 14 17 15 -25 15 -32 0 -40 3 -29 10 12 8 10 10 -10 10 l-25 1
28 15 c29 16 35 30 15 37 -7 2 4 8 25 12 20 4 40 11 43 16 3 5 -2 6 -10 3 -9
-3 -16 -1 -16 5 0 6 7 11 15 11 48 0 -24 136 -118 223 -22 20 -36 37 -30 37 5
0 18 -9 28 -20 10 -11 24 -20 32 -20 7 0 13 -6 13 -14 0 -9 7 -12 21 -9 17 5
20 2 17 -13 -2 -11 6 -27 19 -37 12 -10 22 -21 20 -25 -1 -4 2 -8 7 -9 5 0 13
-8 18 -17 6 -11 17 -14 32 -10 14 3 27 -1 35 -10 8 -9 21 -16 30 -16 9 0 22
-9 29 -20 7 -11 19 -20 27 -20 8 0 15 -5 15 -11 0 -8 5 -8 15 1 13 11 17 8 26
-19 8 -23 15 -29 22 -22 18 18 28 12 17 -10 -7 -11 -10 -22 -8 -23 2 -1 17 -8
33 -16 17 -8 39 -23 49 -32 19 -17 19 -18 2 -18 -15 0 -16 -3 -6 -15 7 -8 9
-15 5 -15 -4 0 -2 -6 4 -14 6 -7 9 -21 5 -30 -4 -12 0 -16 16 -16 11 0 18 -4
15 -10 -3 -6 4 -10 17 -10 22 -1 22 -1 4 -15 -21 -16 -13 -37 11 -28 11 4 14
3 9 -5 -4 -7 -1 -12 9 -12 14 0 14 -4 -4 -26 l-20 -26 25 -51 c14 -29 30 -60
35 -69 13 -25 11 -38 -6 -38 -8 0 -15 -5 -15 -11 0 -6 7 -9 15 -5 25 9 17 -11
-13 -30 -18 -11 -23 -13 -15 -3 16 19 3 41 -17 29 -8 -6 -25 -10 -38 -10 -15
0 -21 -4 -16 -12 4 -6 7 -31 7 -55 -1 -40 1 -43 26 -43 19 0 22 -3 12 -9 -8
-5 -11 -16 -7 -26 3 -9 -1 -23 -9 -32 -9 -8 -14 -23 -11 -32 3 -9 8 -32 11
-52 5 -24 15 -41 31 -49 13 -8 24 -21 24 -31 0 -9 5 -19 11 -21 7 -2 0 -12
-15 -22 -22 -14 -30 -15 -42 -5 -11 9 -18 8 -31 -2 -11 -9 -14 -10 -9 -2 5 9
2 11 -8 7 -9 -3 -13 -11 -9 -17 4 -6 0 -8 -9 -4 -11 4 -14 1 -11 -12 3 -11 -4
-22 -19 -29 -20 -10 -21 -12 -3 -10 31 3 76 -11 70 -22 -3 -6 5 -10 19 -10 13
0 33 -3 43 -7 16 -6 15 -8 -7 -13 -16 -4 -26 -14 -28 -28 -3 -16 -10 -22 -30
-22 -25 -1 -26 -1 -7 -12 11 -6 21 -12 22 -12 1 -1 -6 -30 -16 -64 l-19 -62
76 0 c43 0 113 -9 157 -19 l80 -19 -105 -2 c-63 -1 -97 -4 -85 -9 28 -11 331
-34 344 -26 6 3 11 16 11 28 1 62 97 233 166 295 14 12 22 22 18 22 -21 0 48
39 89 50 46 12 49 15 43 42 -5 26 -4 27 14 18 60 -32 16 18 -63 72 -44 30 -57
44 -51 56 3 10 9 27 11 39 6 25 18 25 98 -2 22 -8 53 -16 69 -20 26 -6 27 -7
12 -24 -9 -10 -16 -32 -16 -49 0 -25 6 -35 30 -47 36 -19 44 -19 36 0 -4 11 1
15 17 15 12 0 37 9 56 21 24 14 37 17 44 10 14 -14 30 -14 22 -1 -3 6 -1 10 5
10 6 0 8 4 5 10 -3 6 1 7 9 4 9 -3 16 -10 16 -15 0 -5 11 -9 25 -9 16 0 25 6
25 16 0 10 5 12 13 7 21 -13 37 -12 37 4 0 24 75 8 108 -22 16 -15 34 -23 44
-19 12 3 16 1 13 -8 -9 -24 65 -21 91 3 13 12 21 25 19 29 -3 5 13 10 34 12
26 2 37 0 34 -8 -2 -6 5 -14 16 -17 12 -3 19 -1 16 3 -9 15 26 41 46 35 10 -4
19 -2 19 3 0 5 11 8 25 7 13 -2 29 3 36 11 9 11 8 14 -2 14 -10 1 -8 4 4 11 9
5 21 8 26 5 5 -3 19 3 31 14 26 23 60 26 78 8 7 -7 12 -8 12 -2 0 6 -5 15 -12
22 -9 9 -9 12 1 12 7 0 9 5 5 12 -5 8 -2 9 10 5 14 -5 17 -3 13 8 -5 11 0 13
25 8 22 -4 29 -3 24 5 -5 8 1 12 18 12 14 0 28 5 31 11 4 6 13 8 20 5 8 -3 19
2 25 10 7 8 28 14 47 14 26 0 43 8 68 34 l33 34 -28 12 c-26 11 -128 7 -185
-6 -16 -4 -17 -3 -5 5 13 9 13 11 -2 11 -10 0 -18 -4 -18 -10 0 -5 -18 -10
-40 -10 -30 0 -38 3 -34 14 3 8 -3 20 -13 27 -23 16 -58 113 -39 106 7 -3 12
3 12 14 -1 31 18 23 37 -16 10 -20 21 -35 24 -31 3 3 0 12 -7 21 -7 8 -9 15
-5 15 4 0 2 7 -5 15 -10 12 -9 15 5 15 13 0 16 6 12 21 -7 25 2 51 14 43 13
-8 11 20 -2 33 -12 12 -3 37 11 28 4 -3 11 -21 14 -40 4 -20 11 -33 16 -30 5
3 7 13 4 23 -3 9 1 6 10 -8 15 -24 15 -24 11 23 -2 26 1 47 6 47 17 0 9 26
-14 48 -28 27 -39 28 -30 5 6 -16 3 -15 -17 2 -13 11 -25 15 -27 10 -2 -6 -18
-9 -37 -7 -29 3 -34 1 -40 -22 -5 -22 -12 -26 -44 -27 -48 -2 -114 -6 -128 -8
-7 0 -14 -10 -17 -21 -3 -11 -13 -20 -22 -20 -9 0 -23 -6 -30 -14 -10 -10 -24
-12 -48 -6 -21 4 -42 3 -56 -4 -12 -7 -55 -11 -97 -11 -73 1 -77 0 -87 -24 -6
-14 -12 -27 -13 -29 -1 -2 -12 2 -24 8 -18 10 -24 9 -31 -1 -6 -11 -11 -11
-21 -1 -17 17 -36 15 -41 -6 -3 -11 -5 -9 -6 8 -1 18 -7 26 -21 27 -11 1 -20
-4 -20 -12 0 -15 -26 -24 -70 -25 -14 0 -64 -1 -112 -3 -63 -1 -88 1 -88 10 0
28 -21 20 -47 -17 -50 -72 -55 -76 -24 -17 28 52 30 59 17 73 -9 8 -20 23 -25
32 -9 15 -11 15 -28 0 -25 -22 -60 -31 -68 -18 -4 6 -15 8 -26 5 -16 -5 -19
-1 -21 32 0 21 -1 44 -1 51 1 19 -8 15 -51 -25 -37 -36 -37 -35 8 19 39 47 45
59 32 64 -9 3 -14 10 -11 14 3 4 -2 13 -10 20 -8 7 -12 16 -9 21 3 5 -8 12
-25 15 -17 4 -31 11 -31 16 0 6 -7 8 -15 4 -10 -4 -22 8 -36 37 -12 23 -26 45
-31 48 -6 4 -11 31 -13 60 -1 30 -6 62 -10 72 -4 11 -3 17 5 17 10 0 10 3 1
14 -9 11 -9 15 1 18 7 3 -19 23 -57 45 -39 23 -88 61 -110 85 l-40 43 40 -36
c22 -20 58 -48 80 -63 67 -44 89 -28 35 26 -17 17 -30 31 -28 33 9 6 246 -29
242 -36 -5 -9 11 -13 81 -24 22 -3 47 -8 56 -11 11 -3 18 3 22 16 5 19 0 20
-61 21 l-67 2 50 7 c69 11 159 11 125 0 -23 -7 -23 -8 -3 -9 28 -1 54 9 48 19
-3 5 17 8 45 7 27 -1 50 -5 50 -9 0 -10 37 -10 44 0 2 4 18 9 35 10 25 2 29
-1 24 -14 -5 -14 -2 -16 23 -10 40 10 59 27 42 37 -7 5 5 12 35 20 26 6 47 16
47 21 0 6 7 8 15 4 8 -3 15 0 15 7 0 16 41 52 60 52 8 0 24 16 37 35 29 47
131 148 167 167 15 8 61 17 102 20 58 5 80 2 111 -13 21 -10 56 -20 78 -23 73
-9 239 -4 285 8 24 7 59 14 78 16 23 2 49 18 86 52 30 26 81 68 115 93 58 41
148 129 235 225 47 52 111 184 126 259 16 79 16 207 0 281 -19 91 -42 129 -92
152 -61 29 -85 35 -92 24z m-556 -415 c0 -5 -177 -105 -255 -144 -65 -32 -198
-77 -255 -86 -47 -8 -18 4 91 38 47 14 159 64 250 111 175 90 169 87 169 81z
m620 -236 c0 -5 -4 -10 -10 -10 -5 0 -10 5 -10 10 0 6 5 10 10 10 6 0 10 -4
10 -10z m-1560 -10 c-85 -10 -381 -10 -320 0 25 4 122 7 215 7 124 0 153 -2
105 -7z m368 -59 c3 -8 -1 -12 -9 -9 -7 2 -15 10 -17 17 -3 8 1 12 9 9 7 -2
15 -10 17 -17z m-2159 -199 c14 -26 5 -45 -9 -22 -6 8 -10 13 -11 10 -6 -34
-8 -43 -13 -48 -3 -3 -6 2 -6 11 0 17 -34 32 -50 22 -5 -3 -10 3 -10 14 0 12
-4 21 -9 21 -5 0 -7 9 -4 20 8 30 21 24 38 -17 8 -20 18 -34 20 -31 3 3 -1 18
-9 34 -9 15 -13 38 -10 50 3 12 1 25 -5 28 -6 4 -11 14 -11 23 0 16 64 -67 89
-115z m-139 88 c0 -11 -2 -20 -3 -20 -2 0 -12 9 -22 20 -18 19 -17 20 3 20 15
0 22 -6 22 -20z m2532 -40 c35 -38 49 -63 31 -58 -20 5 -110 -15 -124 -28 -9
-8 -35 -16 -58 -18 -23 -2 -48 -9 -54 -15 -17 -17 -37 -13 -37 7 0 36 56 108
101 130 66 33 95 29 141 -18z m-2334 -125 c-3 -3 -9 2 -12 12 -6 14 -5 15 5 6
7 -7 10 -15 7 -18z m31 -114 c-14 -4 -19 2 -24 30 l-4 24 19 -25 c10 -14 14
-27 9 -29z m32 -43 c11 -21 11 -22 -4 -9 -10 7 -17 17 -17 22 0 15 9 10 21
-13z m-36 -8 c-3 -5 -11 -10 -16 -10 -6 0 -7 5 -4 10 3 6 11 10 16 10 6 0 7
-4 4 -10z m1551 -29 c-22 -21 -46 0 -26 24 10 12 16 13 27 3 12 -10 12 -13 -1
-27z m-1515 -3 c24 -30 24 -48 -1 -48 -11 0 -20 7 -20 16 0 8 -4 13 -9 10 -5
-3 -12 2 -15 11 -4 9 -1 20 6 25 18 11 17 11 39 -14z m323 -37 c3 -4 -6 -6
-19 -3 -14 2 -25 6 -25 8 0 8 39 4 44 -5z m148 -25 c25 -6 26 -9 16 -25 -12
-19 -13 -19 -50 0 -37 19 -44 45 -10 35 10 -2 29 -7 44 -10z m606 -111 c7 -7
-9 -6 -47 1 -17 4 -28 10 -26 14 5 8 62 -4 73 -15z m79 -11 c-3 -3 -12 -4 -19
-1 -8 3 -5 6 6 6 11 1 17 -2 13 -5z m-747 -70 c0 -2 -9 0 -20 6 -11 6 -20 13
-20 16 0 2 9 0 20 -6 11 -6 20 -13 20 -16z m-115 -74 c-3 -5 -13 -10 -21 -10
-8 0 -12 5 -9 10 3 6 13 10 21 10 8 0 12 -4 9 -10z m205 -220 c0 -5 -5 -10
-11 -10 -5 0 -7 5 -4 10 3 6 8 10 11 10 2 0 4 -4 4 -10z m893 -465 c-3 -9 -8
-14 -10 -11 -3 3 -2 9 2 15 9 16 15 13 8 -4z m-77 -147 c-9 -12 -16 -19 -16
-15 0 11 24 47 28 42 2 -2 -3 -14 -12 -27z m504 13 c0 -26 -14 -34 -50 -26
-37 8 -38 20 -2 33 41 16 52 14 52 -7z m-122 -19 c5 -15 -38 -16 -58 -1 -13 9
-12 10 2 5 10 -3 20 -1 24 5 7 12 26 7 32 -9z m-143 -37 c58 -19 24 -17 -95 5
l-105 19 80 -6 c44 -3 98 -11 120 -18z m-715 -59 c0 -2 -8 -10 -17 -17 -16
-13 -17 -12 -4 4 13 16 21 21 21 13z m1300 -136 c0 -5 -10 -10 -22 -9 -22 0
-22 1 -3 9 11 5 21 9 23 9 1 1 2 -3 2 -9z m-726 -16 c3 -8 2 -12 -4 -9 -6 3
-10 10 -10 16 0 14 7 11 14 -7z"/>
<path d="M1893 3685 c7 -14 16 -25 20 -25 9 0 -9 36 -22 44 -5 4 -4 -5 2 -19z"/>
<path d="M2664 3687 c-8 -22 4 -70 16 -62 13 8 13 45 0 65 -8 12 -10 12 -16
-3z"/>
<path d="M1090 3680 c20 -13 33 -13 25 0 -3 6 -14 10 -23 10 -15 0 -15 -2 -2
-10z"/>
<path d="M2055 3660 c-3 -5 -1 -10 4 -10 6 0 11 5 11 10 0 6 -2 10 -4 10 -3 0
-8 -4 -11 -10z"/>
<path d="M4380 3593 c0 -15 31 -46 38 -38 3 3 -4 15 -16 28 -12 12 -22 16 -22
10z"/>
<path d="M1225 3540 c3 -5 14 -10 23 -10 15 0 15 2 2 10 -20 13 -33 13 -25 0z"/>
<path d="M4157 3499 c7 -7 15 -10 18 -7 3 3 -2 9 -12 12 -14 6 -15 5 -6 -5z"/>
<path d="M1750 3453 c0 -5 5 -15 10 -23 7 -12 12 -12 22 -2 10 10 10 15 -2 22
-18 12 -30 13 -30 3z"/>
<path d="M912 3410 c0 -14 2 -19 5 -12 2 6 2 18 0 25 -3 6 -5 1 -5 -13z"/>
<path d="M1801 3404 c0 -11 3 -14 6 -6 3 7 2 16 -1 19 -3 4 -6 -2 -5 -13z"/>
<path d="M1750 3405 c0 -3 10 -16 21 -28 l21 -22 -11 22 c-11 22 -31 40 -31
28z"/>
<path d="M891 3354 c0 -11 3 -14 6 -6 3 7 2 16 -1 19 -3 4 -6 -2 -5 -13z"/>
<path d="M971 3354 c0 -11 3 -14 6 -6 3 7 2 16 -1 19 -3 4 -6 -2 -5 -13z"/>
<path d="M1751 3320 c13 -27 59 -74 65 -67 3 2 -14 24 -36 48 -28 30 -37 36
-29 19z"/>
<path d="M5090 3326 c0 -8 5 -18 11 -22 8 -5 8 -9 -1 -14 -8 -5 -7 -9 4 -13
17 -7 22 17 10 47 -8 20 -24 21 -24 2z"/>
<path d="M997 3316 c-4 -10 -5 -21 -2 -24 9 -9 17 6 13 25 -3 17 -4 17 -11 -1z"/>
<path d="M4730 3263 c0 -13 29 -38 35 -31 3 3 -4 13 -15 23 -11 10 -20 13 -20
8z"/>
<path d="M4974 3258 c4 -12 0 -18 -11 -18 -12 0 -14 -3 -6 -11 7 -7 17 -8 27
-2 15 8 15 11 0 28 -13 17 -15 17 -10 3z"/>
<path d="M4850 3242 c0 -12 19 -26 26 -19 2 2 -2 10 -11 17 -9 8 -15 8 -15 2z"/>
<path d="M5100 3240 c0 -5 5 -10 11 -10 5 0 7 5 4 10 -3 6 -8 10 -11 10 -2 0
-4 -4 -4 -10z"/>
<path d="M4800 3226 c0 -2 7 -6 15 -10 8 -3 15 -1 15 4 0 6 -7 10 -15 10 -8 0
-15 -2 -15 -4z"/>
<path d="M735 3201 c-3 -5 -1 -12 5 -16 5 -3 10 1 10 9 0 18 -6 21 -15 7z"/>
<path d="M5032 3134 c-46 -30 -81 -58 -78 -62 9 -14 -53 -80 -119 -127 -68
-49 -91 -72 -82 -82 4 -3 16 6 28 21 11 14 42 40 67 57 61 41 112 90 112 106
0 8 7 16 15 19 8 4 15 12 15 20 0 8 7 14 15 14 8 0 15 4 15 9 0 5 23 23 50 40
28 17 50 33 50 36 0 8 1 8 -88 -51z"/>
<path d="M5017 3059 c7 -7 15 -10 18 -7 3 3 -2 9 -12 12 -14 6 -15 5 -6 -5z"/>
<path d="M5080 3050 c0 -5 5 -10 11 -10 5 0 7 5 4 10 -3 6 -8 10 -11 10 -2 0
-4 -4 -4 -10z"/>
<path d="M398 2998 c9 -9 15 -9 24 0 9 9 7 12 -12 12 -19 0 -21 -3 -12 -12z"/>
<path d="M4710 2849 c0 -5 5 -7 10 -4 6 3 10 8 10 11 0 2 -4 4 -10 4 -5 0 -10
-5 -10 -11z"/>
<path d="M4640 2805 c-7 -8 -9 -15 -6 -15 4 0 14 7 22 15 9 8 11 15 6 15 -5 0
-15 -7 -22 -15z"/>
<path d="M656 2525 c4 -8 10 -12 15 -9 14 8 10 24 -6 24 -9 0 -12 -6 -9 -15z"/>
<path d="M2972 2406 c-30 -16 -54 -53 -54 -82 0 -27 -14 -30 -42 -9 -16 12
-21 12 -36 -8 -15 -19 -20 -20 -34 -7 -10 8 -38 13 -67 12 -50 -1 -99 11 -109
28 -6 10 -60 1 -60 -10 0 -13 75 -57 125 -74 26 -9 57 -22 69 -28 11 -7 44
-15 71 -19 28 -5 60 -11 71 -14 18 -6 24 -1 32 27 6 18 13 50 17 71 3 20 11
37 17 37 6 0 9 3 5 6 -3 4 0 22 9 42 8 19 13 36 12 38 -2 1 -13 -3 -26 -10z"/>
<path d="M2265 2230 c-3 -5 -1 -10 4 -10 6 0 11 5 11 10 0 6 -2 10 -4 10 -3 0
-8 -4 -11 -10z"/>
<path d="M2980 2030 c0 -5 5 -10 11 -10 5 0 7 5 4 10 -3 6 -8 10 -11 10 -2 0
-4 -4 -4 -10z"/>
<path d="M2289 1806 c-8 -9 2 -66 12 -66 5 0 9 4 9 9 0 5 3 17 7 27 4 11 3 15
-5 11 -6 -4 -12 0 -14 9 -2 9 -6 13 -9 10z"/>
<path d="M2431 1764 c0 -11 3 -14 6 -6 3 7 2 16 -1 19 -3 4 -6 -2 -5 -13z"/>
<path d="M3270 1696 c0 -8 4 -17 9 -20 5 -4 7 3 4 14 -6 23 -13 26 -13 6z"/>
<path d="M3473 1393 c9 -2 25 -2 35 0 9 3 1 5 -18 5 -19 0 -27 -2 -17 -5z"/>
<path d="M2975 1120 c4 -6 11 -8 16 -5 14 9 11 15 -7 15 -8 0 -12 -5 -9 -10z"/>
<path d="M2902 1073 c2 -10 11 -19 21 -21 23 -5 21 10 -4 26 -18 12 -20 11
-17 -5z"/>
<path d="M2160 1065 c7 -9 15 -13 17 -11 7 7 -7 26 -19 26 -6 0 -6 -6 2 -15z"/>
<path d="M2818 1053 c7 -3 16 -2 19 1 4 3 -2 6 -13 5 -11 0 -14 -3 -6 -6z"/>
<path d="M1245 1000 c3 -5 8 -10 11 -10 2 0 4 5 4 10 0 6 -5 10 -11 10 -5 0
-7 -4 -4 -10z"/>
<path d="M1263 883 c9 -2 23 -2 30 0 6 3 -1 5 -18 5 -16 0 -22 -2 -12 -5z"/>
<path d="M1090 855 c-25 -7 -38 -13 -30 -14 8 0 38 6 65 13 28 8 41 14 30 14
-11 0 -40 -6 -65 -13z"/>
<path d="M1136 815 c10 -8 23 -15 28 -15 6 0 1 7 -10 15 -10 8 -23 15 -28 15
-6 0 -1 -7 10 -15z"/>
<path d="M1116 795 c4 -8 11 -15 16 -15 6 0 5 6 -2 15 -7 8 -14 15 -16 15 -2
0 -1 -7 2 -15z"/>
<path d="M1350 631 c0 -5 9 -7 20 -4 11 3 20 7 20 9 0 2 -9 4 -20 4 -11 0 -20
-4 -20 -9z"/>
<path d="M2464 488 c3 -13 8 -39 12 -58 9 -46 19 -57 52 -59 50 -1 132 10 132
19 0 5 -13 7 -30 4 -39 -8 -80 3 -80 21 0 8 -4 15 -8 15 -5 0 -14 10 -21 23
-10 20 -11 18 -8 -15 4 -53 -7 -47 -23 13 -14 51 -35 81 -26 37z"/>
<path d="M1797 467 c4 -21 42 -47 69 -47 7 0 29 -10 50 -22 l36 -21 -13 21
c-8 12 -22 22 -31 22 -10 0 -18 5 -18 10 0 6 -7 10 -15 10 -8 0 -15 4 -15 9 0
7 -54 41 -65 41 -1 0 0 -10 2 -23z"/>
<path d="M2078 453 c-3 -13 -2 -26 4 -29 5 -4 8 -17 6 -29 -4 -19 0 -24 25
-29 43 -9 67 -7 67 4 0 5 -6 7 -13 4 -7 -2 -19 7 -27 20 -7 14 -21 28 -31 31
-10 3 -19 16 -21 28 l-3 22 -7 -22z"/>
<path d="M2688 393 c7 -3 16 -2 19 1 4 3 -2 6 -13 5 -11 0 -14 -3 -6 -6z"/>
<path d="M1975 379 c7 -11 35 -12 35 -1 0 4 -9 8 -20 9 -11 1 -18 -2 -15 -8z"/>
<path d="M2434 378 c-3 -4 6 -8 20 -8 14 0 26 4 26 9 0 11 -39 10 -46 -1z"/>
<path d="M2195 370 c-3 -5 1 -10 10 -10 9 0 13 5 10 10 -3 6 -8 10 -10 10 -2
0 -7 -4 -10 -10z"/>
<path d="M2230 366 c0 -2 7 -6 15 -10 8 -3 15 -1 15 4 0 6 -7 10 -15 10 -8 0
-15 -2 -15 -4z"/>
<path d="M2305 360 c-4 -6 3 -10 14 -10 25 0 27 6 6 13 -8 4 -17 2 -20 -3z"/>
</g>
</svg>
